<?xml version="1.0" standalone="no"?>
<!DOCTYPE svg PUBLIC "-//W3C//DTD SVG 20010904//EN"
 "http://www.w3.org/TR/2001/REC-SVG-20010904/DTD/svg10.dtd">
<svg version="1.0" xmlns="http://www.w3.org/2000/svg"
 width="1170.000000pt" height="1170.000000pt" viewBox="0 0 1170.000000 1170.000000"
 preserveAspectRatio="xMidYMid meet">

<g transform="translate(0.000000,1170.000000) scale(0.100000,-0.100000)"
fill="#8b2e00" stroke="none">
<path d="M5605 10545 c-5 -3 -75 -12 -155 -20 -141 -15 -236 -28 -410 -59 -79
-14 -106 -21 -237 -60 -58 -17 -191 -63 -218 -76 -11 -5 -60 -25 -110 -45
-156 -64 -430 -213 -594 -324 -29 -20 -63 -43 -75 -51 -207 -141 -468 -378
-626 -570 -34 -41 -69 -84 -78 -95 -25 -30 -124 -162 -167 -224 -104 -150
-260 -444 -329 -622 -20 -52 -41 -103 -46 -114 -46 -102 -139 -467 -159 -620
-5 -38 -12 -77 -15 -85 -12 -34 -36 -325 -36 -436 0 -144 26 -472 40 -509 5
-14 10 -43 10 -63 0 -38 10 -88 62 -302 34 -141 67 -243 110 -345 16 -38 37
-90 45 -115 55 -161 347 -659 538 -919 28 -37 82 -111 120 -165 159 -219 268
-364 308 -409 50 -58 66 -79 131 -178 47 -69 104 -148 117 -159 3 -3 30 -36
59 -75 30 -38 86 -108 125 -155 86 -103 167 -208 359 -465 25 -33 73 -95 108
-137 35 -42 84 -103 109 -135 131 -167 244 -309 248 -313 16 -14 81 -100 105
-138 14 -23 48 -66 74 -95 26 -29 88 -107 139 -173 50 -65 100 -128 110 -139
10 -11 54 -67 97 -125 44 -58 98 -125 121 -150 24 -25 52 -63 63 -85 18 -36
126 -176 202 -262 47 -54 49 -53 194 132 48 61 109 137 137 170 27 33 82 104
122 157 161 215 353 466 393 513 52 60 154 193 207 267 20 29 50 67 65 83 15
17 47 55 70 85 89 118 133 174 140 180 7 5 74 88 168 208 27 35 64 83 83 105
18 23 49 64 67 92 43 64 117 159 172 222 51 58 207 257 325 413 47 63 103 137
124 164 68 89 282 379 363 492 43 61 86 116 94 123 7 6 36 46 64 89 92 143
262 419 262 426 0 3 20 40 45 81 57 93 105 197 162 350 100 266 154 440 173
550 4 28 11 57 14 65 19 49 40 324 44 575 4 286 0 337 -45 645 -28 193 -65
321 -180 610 -88 224 -158 366 -253 520 -250 406 -604 797 -915 1013 -183 126
-303 206 -350 231 -27 15 -72 41 -100 57 -147 86 -498 229 -700 285 -69 19
-374 72 -520 90 -115 14 -549 29 -570 19z m530 -1118 c327 -55 644 -181 928
-368 194 -129 247 -175 474 -419 136 -147 240 -304 359 -549 37 -75 70 -144
75 -153 9 -19 22 -67 45 -168 8 -36 22 -94 30 -130 66 -296 67 -726 0 -1010
-8 -36 -22 -98 -30 -138 -9 -40 -28 -107 -42 -150 -26 -75 -123 -279 -168
-351 -12 -20 -25 -44 -29 -54 -10 -26 -111 -171 -188 -267 -99 -125 -311 -326
-433 -412 -209 -145 -476 -281 -656 -332 -60 -17 -293 -62 -405 -77 -98 -14
-552 -14 -656 0 -109 14 -341 65 -422 92 -155 52 -396 182 -577 312 -102 74
-377 332 -452 427 -71 88 -204 296 -249 390 -89 181 -164 403 -205 605 -46
223 -50 657 -8 850 53 244 91 374 139 479 14 30 25 61 25 68 0 42 168 328 278
473 120 157 352 379 519 495 63 44 116 80 118 80 3 0 33 18 69 39 76 47 156
84 251 118 272 96 404 132 583 159 114 17 502 11 627 -9z"/>
<path d="M5405 8510 c-126 -9 -179 -23 -287 -72 -111 -52 -158 -88 -251 -192
-157 -176 -404 -580 -432 -705 -3 -17 -19 -41 -35 -53 -15 -13 -55 -45 -89
-72 -67 -55 -129 -147 -154 -231 -8 -27 -21 -70 -28 -95 -19 -61 -19 -327 0
-395 27 -100 82 -197 152 -265 36 -36 80 -77 97 -91 31 -26 32 -30 32 -100 0
-100 23 -175 71 -231 66 -78 178 -117 267 -93 139 36 185 106 199 298 3 48 11
91 17 95 17 10 1638 11 1659 0 13 -7 17 -22 17 -66 1 -181 35 -256 142 -311
64 -33 68 -33 128 -23 164 29 250 131 265 312 8 98 21 126 79 163 88 56 141
132 196 287 18 50 32 240 26 338 -7 93 -30 170 -87 287 -34 70 -47 87 -110
135 -48 37 -78 69 -94 100 -13 25 -58 106 -100 180 -43 74 -86 149 -96 167 -9
17 -52 82 -95 145 -43 62 -93 136 -112 163 -51 75 -109 131 -192 184 -90 57
-157 86 -270 118 -80 22 -105 23 -445 27 -198 2 -409 1 -470 -4z m838 -359
c180 -45 277 -136 444 -416 53 -90 62 -118 42 -131 -12 -7 -1848 -6 -1861 2
-17 11 -7 44 43 140 75 145 135 229 208 291 68 58 117 84 216 113 53 16 108
18 446 19 347 1 394 -1 462 -18z m-1282 -933 c66 -42 103 -87 130 -158 57
-149 23 -290 -95 -398 -69 -64 -116 -82 -212 -82 -118 0 -178 21 -240 84 -72
74 -114 163 -114 240 1 135 68 266 167 328 92 56 265 50 364 -14z m1986 21
c102 -49 180 -154 202 -272 31 -170 -110 -360 -288 -386 -63 -9 -162 4 -208
28 -67 34 -145 131 -172 214 -16 48 -15 150 2 202 39 123 131 212 242 235 59
13 174 2 222 -21z"/>
<path d="M4375 2234 c-27 -8 -75 -22 -105 -31 -451 -128 -627 -200 -847 -345
-162 -107 -223 -199 -223 -339 0 -131 36 -195 168 -299 42 -33 82 -65 89 -70
7 -6 15 -10 18 -10 4 0 26 -13 50 -30 24 -16 46 -30 49 -30 3 0 43 -18 88 -41
46 -22 151 -63 233 -90 83 -27 164 -54 180 -60 17 -6 46 -15 65 -19 19 -5 71
-18 115 -30 44 -12 100 -25 125 -30 25 -5 70 -14 100 -20 30 -6 78 -16 105
-22 28 -6 84 -14 125 -18 153 -16 277 -31 335 -40 267 -45 1249 -45 1502 -1
55 10 169 24 335 41 42 4 91 12 110 18 18 6 58 13 88 17 30 3 69 10 85 15 17
4 66 16 110 25 44 9 98 23 120 29 22 7 65 20 95 29 82 25 168 54 230 77 30 11
81 30 114 41 105 36 276 132 403 227 75 56 120 118 157 215 35 93 -18 242
-121 339 -57 53 -354 222 -460 262 -21 8 -76 28 -123 45 -85 32 -168 59 -270
88 -30 8 -66 20 -80 25 -14 6 -54 15 -90 20 -36 5 -79 12 -96 15 -28 4 -37 -2
-97 -69 -81 -90 -157 -193 -157 -212 0 -16 68 -41 138 -52 23 -4 45 -11 48
-15 3 -5 20 -9 39 -9 59 0 238 -48 292 -78 12 -7 26 -12 32 -12 6 0 48 -17 93
-39 88 -41 169 -105 193 -152 31 -59 13 -129 -51 -193 -62 -62 -343 -186 -422
-186 -17 0 -51 -6 -74 -14 -54 -17 -200 -48 -408 -87 -36 -6 -101 -15 -145
-19 -271 -26 -337 -31 -495 -41 -96 -7 -229 -14 -295 -16 -122 -5 -553 19
-700 38 -44 6 -118 15 -165 19 -47 5 -101 14 -120 19 -19 6 -58 11 -86 11 -28
0 -64 5 -80 10 -16 6 -58 14 -94 20 -36 5 -94 16 -130 25 -36 9 -85 20 -110
25 -144 29 -302 92 -398 158 -59 40 -122 126 -122 167 0 38 33 97 79 138 76
69 405 207 492 207 17 0 51 6 77 14 26 7 81 22 122 31 41 10 78 20 82 22 13 7
-16 53 -90 144 -38 48 -76 96 -84 107 -15 22 -65 52 -83 51 -5 0 -32 -7 -60
-15z"/>
</g>
</svg>
